<?xml version="1.0" encoding="UTF-8"?>
<!DOCTYPE svg PUBLIC "-//W3C//DTD SVG 1.1//EN" "http://www.w3.org/Graphics/SVG/1.1/DTD/svg11.dtd">
<svg xmlns="http://www.w3.org/2000/svg" xmlns:xlink="http://www.w3.org/1999/xlink" version="1.1" width="1152px" height="285px" viewBox="-0.5 -0.5 1152 285"><defs><linearGradient x1="0%" y1="0%" x2="0%" y2="100%" id="mx-gradient-f5f5f5-1-b3b3b3-1-s-0"><stop offset="0%" style="stop-color:#f5f5f5"/><stop offset="100%" style="stop-color:#b3b3b3"/></linearGradient><linearGradient x1="0%" y1="0%" x2="0%" y2="100%" id="mx-gradient-e6d0de-1-d5739d-1-s-0"><stop offset="0%" style="stop-color:#e6d0de"/><stop offset="100%" style="stop-color:#d5739d"/></linearGradient><linearGradient x1="0%" y1="0%" x2="0%" y2="100%" id="mx-gradient-dae8fc-1-7ea6e0-1-s-0"><stop offset="0%" style="stop-color:#dae8fc"/><stop offset="100%" style="stop-color:#7ea6e0"/></linearGradient><linearGradient x1="0%" y1="0%" x2="0%" y2="100%" id="mx-gradient-d5e8d4-1-97d077-1-s-0"><stop offset="0%" style="stop-color:#d5e8d4"/><stop offset="100%" style="stop-color:#97d077"/></linearGradient><linearGradient x1="0%" y1="0%" x2="0%" y2="100%" id="mx-gradient-f8cecc-1-ea6b66-1-s-0"><stop offset="0%" style="stop-color:#f8cecc"/><stop offset="100%" style="stop-color:#ea6b66"/></linearGradient><linearGradient x1="0%" y1="0%" x2="0%" y2="100%" id="mx-gradient-ffcd28-1-ffa500-1-s-0"><stop offset="0%" style="stop-color:#ffcd28"/><stop offset="100%" style="stop-color:#ffa500"/></linearGradient></defs><g><path d="M 101 73 L 206 73 L 211 78 L 211 183 L 106 183 L 101 178 L 101 73 Z" fill="url(#mx-gradient-f5f5f5-1-b3b3b3-1-s-0)" stroke="#666666" stroke-width="2" stroke-miterlimit="10" transform="translate(156,0)scale(-1,1)translate(-156,0)" pointer-events="all"/><path d="M 101 73 L 206 73 L 211 78 L 106 78 Z" fill-opacity="0.05" fill="#000000" stroke="none" transform="translate(156,0)scale(-1,1)translate(-156,0)" pointer-events="all"/><path d="M 101 73 L 106 78 L 106 183 L 101 178 Z" fill-opacity="0.1" fill="#000000" stroke="none" transform="translate(156,0)scale(-1,1)translate(-156,0)" pointer-events="all"/><path d="M 106 183 L 106 78 L 101 73 M 106 78 L 211 78" fill="none" stroke="#666666" stroke-width="2" stroke-miterlimit="10" transform="translate(156,0)scale(-1,1)translate(-156,0)" pointer-events="all"/><path d="M 86 88 L 191 88 L 196 93 L 196 198 L 91 198 L 86 193 L 86 88 Z" fill="url(#mx-gradient-e6d0de-1-d5739d-1-s-0)" stroke="#996185" stroke-width="2" stroke-miterlimit="10" transform="translate(141,0)scale(-1,1)translate(-141,0)" pointer-events="all"/><path d="M 86 88 L 191 88 L 196 93 L 91 93 Z" fill-opacity="0.05" fill="#000000" stroke="none" transform="translate(141,0)scale(-1,1)translate(-141,0)" pointer-events="all"/><path d="M 86 88 L 91 93 L 91 198 L 86 193 Z" fill-opacity="0.1" fill="#000000" stroke="none" transform="translate(141,0)scale(-1,1)translate(-141,0)" pointer-events="all"/><path d="M 91 198 L 91 93 L 86 88 M 91 93 L 196 93" fill="none" stroke="#996185" stroke-width="2" stroke-miterlimit="10" transform="translate(141,0)scale(-1,1)translate(-141,0)" pointer-events="all"/><path d="M 71 103 L 176 103 L 181 108 L 181 213 L 76 213 L 71 208 L 71 103 Z" fill="url(#mx-gradient-dae8fc-1-7ea6e0-1-s-0)" stroke="#6c8ebf" stroke-width="2" stroke-miterlimit="10" transform="translate(126,0)scale(-1,1)translate(-126,0)" pointer-events="all"/><path d="M 71 103 L 176 103 L 181 108 L 76 108 Z" fill-opacity="0.05" fill="#000000" stroke="none" transform="translate(126,0)scale(-1,1)translate(-126,0)" pointer-events="all"/><path d="M 71 103 L 76 108 L 76 213 L 71 208 Z" fill-opacity="0.1" fill="#000000" stroke="none" transform="translate(126,0)scale(-1,1)translate(-126,0)" pointer-events="all"/><path d="M 76 213 L 76 108 L 71 103 M 76 108 L 181 108" fill="none" stroke="#6c8ebf" stroke-width="2" stroke-miterlimit="10" transform="translate(126,0)scale(-1,1)translate(-126,0)" pointer-events="all"/><path d="M 31 143 L 136 143 L 141 148 L 141 253 L 36 253 L 31 248 L 31 143 Z" fill="url(#mx-gradient-d5e8d4-1-97d077-1-s-0)" stroke="#82b366" stroke-width="2" stroke-miterlimit="10" transform="translate(86,0)scale(-1,1)translate(-86,0)" pointer-events="all"/><path d="M 31 143 L 136 143 L 141 148 L 36 148 Z" fill-opacity="0.05" fill="#000000" stroke="none" transform="translate(86,0)scale(-1,1)translate(-86,0)" pointer-events="all"/><path d="M 31 143 L 36 148 L 36 253 L 31 248 Z" fill-opacity="0.1" fill="#000000" stroke="none" transform="translate(86,0)scale(-1,1)translate(-86,0)" pointer-events="all"/><path d="M 36 253 L 36 148 L 31 143 M 36 148 L 141 148" fill="none" stroke="#82b366" stroke-width="2" stroke-miterlimit="10" transform="translate(86,0)scale(-1,1)translate(-86,0)" pointer-events="all"/><path d="M 16 158 L 121 158 L 126 163 L 126 268 L 21 268 L 16 263 L 16 158 Z" fill="url(#mx-gradient-f8cecc-1-ea6b66-1-s-0)" stroke="#b85450" stroke-width="2" stroke-miterlimit="10" transform="translate(71,0)scale(-1,1)translate(-71,0)" pointer-events="all"/><path d="M 16 158 L 121 158 L 126 163 L 21 163 Z" fill-opacity="0.05" fill="#000000" stroke="none" transform="translate(71,0)scale(-1,1)translate(-71,0)" pointer-events="all"/><path d="M 16 158 L 21 163 L 21 268 L 16 263 Z" fill-opacity="0.1" fill="#000000" stroke="none" transform="translate(71,0)scale(-1,1)translate(-71,0)" pointer-events="all"/><path d="M 21 268 L 21 163 L 16 158 M 21 163 L 126 163" fill="none" stroke="#b85450" stroke-width="2" stroke-miterlimit="10" transform="translate(71,0)scale(-1,1)translate(-71,0)" pointer-events="all"/><path d="M 1 173 L 106 173 L 111 178 L 111 283 L 6 283 L 1 278 L 1 173 Z" fill="url(#mx-gradient-ffcd28-1-ffa500-1-s-0)" stroke="#d79b00" stroke-width="2" stroke-miterlimit="10" transform="translate(56,0)scale(-1,1)translate(-56,0)" pointer-events="all"/><path d="M 1 173 L 106 173 L 111 178 L 6 178 Z" fill-opacity="0.05" fill="#000000" stroke="none" transform="translate(56,0)scale(-1,1)translate(-56,0)" pointer-events="all"/><path d="M 1 173 L 6 178 L 6 283 L 1 278 Z" fill-opacity="0.1" fill="#000000" stroke="none" transform="translate(56,0)scale(-1,1)translate(-56,0)" pointer-events="all"/><path d="M 6 283 L 6 178 L 1 173 M 6 178 L 111 178" fill="none" stroke="#d79b00" stroke-width="2" stroke-miterlimit="10" transform="translate(56,0)scale(-1,1)translate(-56,0)" pointer-events="all"/><path d="M 168 228 L 230.9 228" fill="none" stroke="#000000" stroke-width="3" stroke-miterlimit="10" pointer-events="stroke"/><path d="M 237.65 228 L 228.65 232.5 L 230.9 228 L 228.65 223.5 Z" fill="#000000" stroke="#000000" stroke-width="3" stroke-miterlimit="10" pointer-events="all"/><path d="M 341 143 L 376 143 L 381 148 L 381 183 L 346 183 L 341 178 L 341 143 Z" fill="url(#mx-gradient-f5f5f5-1-b3b3b3-1-s-0)" stroke="#666666" stroke-width="2" stroke-miterlimit="10" transform="translate(361,0)scale(-1,1)translate(-361,0)" pointer-events="all"/><path d="M 341 143 L 376 143 L 381 148 L 346 148 Z" fill-opacity="0.05" fill="#000000" stroke="none" transform="translate(361,0)scale(-1,1)translate(-361,0)" pointer-events="all"/><path d="M 341 143 L 346 148 L 346 183 L 341 178 Z" fill-opacity="0.1" fill="#000000" stroke="none" transform="translate(361,0)scale(-1,1)translate(-361,0)" pointer-events="all"/><path d="M 346 183 L 346 148 L 341 143 M 346 148 L 381 148" fill="none" stroke="#666666" stroke-width="2" stroke-miterlimit="10" transform="translate(361,0)scale(-1,1)translate(-361,0)" pointer-events="all"/><path d="M 326 158 L 361 158 L 366 163 L 366 198 L 331 198 L 326 193 L 326 158 Z" fill="url(#mx-gradient-e6d0de-1-d5739d-1-s-0)" stroke="#996185" stroke-width="2" stroke-miterlimit="10" transform="translate(346,0)scale(-1,1)translate(-346,0)" pointer-events="all"/><path d="M 326 158 L 361 158 L 366 163 L 331 163 Z" fill-opacity="0.05" fill="#000000" stroke="none" transform="translate(346,0)scale(-1,1)translate(-346,0)" pointer-events="all"/><path d="M 326 158 L 331 163 L 331 198 L 326 193 Z" fill-opacity="0.1" fill="#000000" stroke="none" transform="translate(346,0)scale(-1,1)translate(-346,0)" pointer-events="all"/><path d="M 331 198 L 331 163 L 326 158 M 331 163 L 366 163" fill="none" stroke="#996185" stroke-width="2" stroke-miterlimit="10" transform="translate(346,0)scale(-1,1)translate(-346,0)" pointer-events="all"/><path d="M 311 173 L 346 173 L 351 178 L 351 213 L 316 213 L 311 208 L 311 173 Z" fill="url(#mx-gradient-dae8fc-1-7ea6e0-1-s-0)" stroke="#6c8ebf" stroke-width="2" stroke-miterlimit="10" transform="translate(331,0)scale(-1,1)translate(-331,0)" pointer-events="all"/><path d="M 311 173 L 346 173 L 351 178 L 316 178 Z" fill-opacity="0.05" fill="#000000" stroke="none" transform="translate(331,0)scale(-1,1)translate(-331,0)" pointer-events="all"/><path d="M 311 173 L 316 178 L 316 213 L 311 208 Z" fill-opacity="0.1" fill="#000000" stroke="none" transform="translate(331,0)scale(-1,1)translate(-331,0)" pointer-events="all"/><path d="M 316 213 L 316 178 L 311 173 M 316 178 L 351 178" fill="none" stroke="#6c8ebf" stroke-width="2" stroke-miterlimit="10" transform="translate(331,0)scale(-1,1)translate(-331,0)" pointer-events="all"/><path d="M 271 213 L 306 213 L 311 218 L 311 253 L 276 253 L 271 248 L 271 213 Z" fill="url(#mx-gradient-d5e8d4-1-97d077-1-s-0)" stroke="#82b366" stroke-width="2" stroke-miterlimit="10" transform="translate(291,0)scale(-1,1)translate(-291,0)" pointer-events="all"/><path d="M 271 213 L 306 213 L 311 218 L 276 218 Z" fill-opacity="0.05" fill="#000000" stroke="none" transform="translate(291,0)scale(-1,1)translate(-291,0)" pointer-events="all"/><path d="M 271 213 L 276 218 L 276 253 L 271 248 Z" fill-opacity="0.1" fill="#000000" stroke="none" transform="translate(291,0)scale(-1,1)translate(-291,0)" pointer-events="all"/><path d="M 276 253 L 276 218 L 271 213 M 276 218 L 311 218" fill="none" stroke="#82b366" stroke-width="2" stroke-miterlimit="10" transform="translate(291,0)scale(-1,1)translate(-291,0)" pointer-events="all"/><path d="M 256 228 L 291 228 L 296 233 L 296 268 L 261 268 L 256 263 L 256 228 Z" fill="url(#mx-gradient-f8cecc-1-ea6b66-1-s-0)" stroke="#b85450" stroke-width="2" stroke-miterlimit="10" transform="translate(276,0)scale(-1,1)translate(-276,0)" pointer-events="all"/><path d="M 256 228 L 291 228 L 296 233 L 261 233 Z" fill-opacity="0.05" fill="#000000" stroke="none" transform="translate(276,0)scale(-1,1)translate(-276,0)" pointer-events="all"/><path d="M 256 228 L 261 233 L 261 268 L 256 263 Z" fill-opacity="0.1" fill="#000000" stroke="none" transform="translate(276,0)scale(-1,1)translate(-276,0)" pointer-events="all"/><path d="M 261 268 L 261 233 L 256 228 M 261 233 L 296 233" fill="none" stroke="#b85450" stroke-width="2" stroke-miterlimit="10" transform="translate(276,0)scale(-1,1)translate(-276,0)" pointer-events="all"/><path d="M 241 243 L 276 243 L 281 248 L 281 283 L 246 283 L 241 278 L 241 243 Z" fill="url(#mx-gradient-ffcd28-1-ffa500-1-s-0)" stroke="#d79b00" stroke-width="2" stroke-miterlimit="10" transform="translate(261,0)scale(-1,1)translate(-261,0)" pointer-events="all"/><path d="M 241 243 L 276 243 L 281 248 L 246 248 Z" fill-opacity="0.05" fill="#000000" stroke="none" transform="translate(261,0)scale(-1,1)translate(-261,0)" pointer-events="all"/><path d="M 241 243 L 246 248 L 246 283 L 241 278 Z" fill-opacity="0.1" fill="#000000" stroke="none" transform="translate(261,0)scale(-1,1)translate(-261,0)" pointer-events="all"/><path d="M 246 283 L 246 248 L 241 243 M 246 248 L 281 248" fill="none" stroke="#d79b00" stroke-width="2" stroke-miterlimit="10" transform="translate(261,0)scale(-1,1)translate(-261,0)" pointer-events="all"/><path d="M 496 143 L 531 143 L 536 148 L 536 183 L 501 183 L 496 178 L 496 143 Z" fill="url(#mx-gradient-f5f5f5-1-b3b3b3-1-s-0)" stroke="#666666" stroke-width="2" stroke-miterlimit="10" transform="translate(516,0)scale(-1,1)translate(-516,0)" pointer-events="all"/><path d="M 496 143 L 531 143 L 536 148 L 501 148 Z" fill-opacity="0.05" fill="#000000" stroke="none" transform="translate(516,0)scale(-1,1)translate(-516,0)" pointer-events="all"/><path d="M 496 143 L 501 148 L 501 183 L 496 178 Z" fill-opacity="0.1" fill="#000000" stroke="none" transform="translate(516,0)scale(-1,1)translate(-516,0)" pointer-events="all"/><path d="M 501 183 L 501 148 L 496 143 M 501 148 L 536 148" fill="none" stroke="#666666" stroke-width="2" stroke-miterlimit="10" transform="translate(516,0)scale(-1,1)translate(-516,0)" pointer-events="all"/><path d="M 481 158 L 516 158 L 521 163 L 521 198 L 486 198 L 481 193 L 481 158 Z" fill="url(#mx-gradient-e6d0de-1-d5739d-1-s-0)" stroke="#996185" stroke-width="2" stroke-miterlimit="10" transform="translate(501,0)scale(-1,1)translate(-501,0)" pointer-events="all"/><path d="M 481 158 L 516 158 L 521 163 L 486 163 Z" fill-opacity="0.05" fill="#000000" stroke="none" transform="translate(501,0)scale(-1,1)translate(-501,0)" pointer-events="all"/><path d="M 481 158 L 486 163 L 486 198 L 481 193 Z" fill-opacity="0.1" fill="#000000" stroke="none" transform="translate(501,0)scale(-1,1)translate(-501,0)" pointer-events="all"/><path d="M 486 198 L 486 163 L 481 158 M 486 163 L 521 163" fill="none" stroke="#996185" stroke-width="2" stroke-miterlimit="10" transform="translate(501,0)scale(-1,1)translate(-501,0)" pointer-events="all"/><path d="M 466 173 L 501 173 L 506 178 L 506 213 L 471 213 L 466 208 L 466 173 Z" fill="url(#mx-gradient-dae8fc-1-7ea6e0-1-s-0)" stroke="#6c8ebf" stroke-width="2" stroke-miterlimit="10" transform="translate(486,0)scale(-1,1)translate(-486,0)" pointer-events="all"/><path d="M 466 173 L 501 173 L 506 178 L 471 178 Z" fill-opacity="0.05" fill="#000000" stroke="none" transform="translate(486,0)scale(-1,1)translate(-486,0)" pointer-events="all"/><path d="M 466 173 L 471 178 L 471 213 L 466 208 Z" fill-opacity="0.1" fill="#000000" stroke="none" transform="translate(486,0)scale(-1,1)translate(-486,0)" pointer-events="all"/><path d="M 471 213 L 471 178 L 466 173 M 471 178 L 506 178" fill="none" stroke="#6c8ebf" stroke-width="2" stroke-miterlimit="10" transform="translate(486,0)scale(-1,1)translate(-486,0)" pointer-events="all"/><path d="M 426 213 L 461 213 L 466 218 L 466 253 L 431 253 L 426 248 L 426 213 Z" fill="url(#mx-gradient-d5e8d4-1-97d077-1-s-0)" stroke="#82b366" stroke-width="2" stroke-miterlimit="10" transform="translate(446,0)scale(-1,1)translate(-446,0)" pointer-events="all"/><path d="M 426 213 L 461 213 L 466 218 L 431 218 Z" fill-opacity="0.05" fill="#000000" stroke="none" transform="translate(446,0)scale(-1,1)translate(-446,0)" pointer-events="all"/><path d="M 426 213 L 431 218 L 431 253 L 426 248 Z" fill-opacity="0.1" fill="#000000" stroke="none" transform="translate(446,0)scale(-1,1)translate(-446,0)" pointer-events="all"/><path d="M 431 253 L 431 218 L 426 213 M 431 218 L 466 218" fill="none" stroke="#82b366" stroke-width="2" stroke-miterlimit="10" transform="translate(446,0)scale(-1,1)translate(-446,0)" pointer-events="all"/><path d="M 411 228 L 446 228 L 451 233 L 451 268 L 416 268 L 411 263 L 411 228 Z" fill="url(#mx-gradient-f8cecc-1-ea6b66-1-s-0)" stroke="#b85450" stroke-width="2" stroke-miterlimit="10" transform="translate(431,0)scale(-1,1)translate(-431,0)" pointer-events="all"/><path d="M 411 228 L 446 228 L 451 233 L 416 233 Z" fill-opacity="0.05" fill="#000000" stroke="none" transform="translate(431,0)scale(-1,1)translate(-431,0)" pointer-events="all"/><path d="M 411 228 L 416 233 L 416 268 L 411 263 Z" fill-opacity="0.1" fill="#000000" stroke="none" transform="translate(431,0)scale(-1,1)translate(-431,0)" pointer-events="all"/><path d="M 416 268 L 416 233 L 411 228 M 416 233 L 451 233" fill="none" stroke="#b85450" stroke-width="2" stroke-miterlimit="10" transform="translate(431,0)scale(-1,1)translate(-431,0)" pointer-events="all"/><path d="M 396 243 L 431 243 L 436 248 L 436 283 L 401 283 L 396 278 L 396 243 Z" fill="url(#mx-gradient-ffcd28-1-ffa500-1-s-0)" stroke="#d79b00" stroke-width="2" stroke-miterlimit="10" transform="translate(416,0)scale(-1,1)translate(-416,0)" pointer-events="all"/><path d="M 396 243 L 431 243 L 436 248 L 401 248 Z" fill-opacity="0.05" fill="#000000" stroke="none" transform="translate(416,0)scale(-1,1)translate(-416,0)" pointer-events="all"/><path d="M 396 243 L 401 248 L 401 283 L 396 278 Z" fill-opacity="0.1" fill="#000000" stroke="none" transform="translate(416,0)scale(-1,1)translate(-416,0)" pointer-events="all"/><path d="M 401 283 L 401 248 L 396 243 M 401 248 L 436 248" fill="none" stroke="#d79b00" stroke-width="2" stroke-miterlimit="10" transform="translate(416,0)scale(-1,1)translate(-416,0)" pointer-events="all"/><path d="M 676 73 L 781 73 L 786 78 L 786 183 L 681 183 L 676 178 L 676 73 Z" fill="url(#mx-gradient-f5f5f5-1-b3b3b3-1-s-0)" stroke="#666666" stroke-width="2" stroke-miterlimit="10" transform="translate(731,0)scale(-1,1)translate(-731,0)" pointer-events="all"/><path d="M 676 73 L 781 73 L 786 78 L 681 78 Z" fill-opacity="0.05" fill="#000000" stroke="none" transform="translate(731,0)scale(-1,1)translate(-731,0)" pointer-events="all"/><path d="M 676 73 L 681 78 L 681 183 L 676 178 Z" fill-opacity="0.1" fill="#000000" stroke="none" transform="translate(731,0)scale(-1,1)translate(-731,0)" pointer-events="all"/><path d="M 681 183 L 681 78 L 676 73 M 681 78 L 786 78" fill="none" stroke="#666666" stroke-width="2" stroke-miterlimit="10" transform="translate(731,0)scale(-1,1)translate(-731,0)" pointer-events="all"/><path d="M 661 88 L 766 88 L 771 93 L 771 198 L 666 198 L 661 193 L 661 88 Z" fill="url(#mx-gradient-e6d0de-1-d5739d-1-s-0)" stroke="#996185" stroke-width="2" stroke-miterlimit="10" transform="translate(716,0)scale(-1,1)translate(-716,0)" pointer-events="all"/><path d="M 661 88 L 766 88 L 771 93 L 666 93 Z" fill-opacity="0.05" fill="#000000" stroke="none" transform="translate(716,0)scale(-1,1)translate(-716,0)" pointer-events="all"/><path d="M 661 88 L 666 93 L 666 198 L 661 193 Z" fill-opacity="0.1" fill="#000000" stroke="none" transform="translate(716,0)scale(-1,1)translate(-716,0)" pointer-events="all"/><path d="M 666 198 L 666 93 L 661 88 M 666 93 L 771 93" fill="none" stroke="#996185" stroke-width="2" stroke-miterlimit="10" transform="translate(716,0)scale(-1,1)translate(-716,0)" pointer-events="all"/><path d="M 646 103 L 751 103 L 756 108 L 756 213 L 651 213 L 646 208 L 646 103 Z" fill="url(#mx-gradient-dae8fc-1-7ea6e0-1-s-0)" stroke="#6c8ebf" stroke-width="2" stroke-miterlimit="10" transform="translate(701,0)scale(-1,1)translate(-701,0)" pointer-events="all"/><path d="M 646 103 L 751 103 L 756 108 L 651 108 Z" fill-opacity="0.05" fill="#000000" stroke="none" transform="translate(701,0)scale(-1,1)translate(-701,0)" pointer-events="all"/><path d="M 646 103 L 651 108 L 651 213 L 646 208 Z" fill-opacity="0.1" fill="#000000" stroke="none" transform="translate(701,0)scale(-1,1)translate(-701,0)" pointer-events="all"/><path d="M 651 213 L 651 108 L 646 103 M 651 108 L 756 108" fill="none" stroke="#6c8ebf" stroke-width="2" stroke-miterlimit="10" transform="translate(701,0)scale(-1,1)translate(-701,0)" pointer-events="all"/><path d="M 606 143 L 711 143 L 716 148 L 716 253 L 611 253 L 606 248 L 606 143 Z" fill="url(#mx-gradient-d5e8d4-1-97d077-1-s-0)" stroke="#82b366" stroke-width="2" stroke-miterlimit="10" transform="translate(661,0)scale(-1,1)translate(-661,0)" pointer-events="all"/><path d="M 606 143 L 711 143 L 716 148 L 611 148 Z" fill-opacity="0.05" fill="#000000" stroke="none" transform="translate(661,0)scale(-1,1)translate(-661,0)" pointer-events="all"/><path d="M 606 143 L 611 148 L 611 253 L 606 248 Z" fill-opacity="0.1" fill="#000000" stroke="none" transform="translate(661,0)scale(-1,1)translate(-661,0)" pointer-events="all"/><path d="M 611 253 L 611 148 L 606 143 M 611 148 L 716 148" fill="none" stroke="#82b366" stroke-width="2" stroke-miterlimit="10" transform="translate(661,0)scale(-1,1)translate(-661,0)" pointer-events="all"/><path d="M 591 158 L 696 158 L 701 163 L 701 268 L 596 268 L 591 263 L 591 158 Z" fill="url(#mx-gradient-f8cecc-1-ea6b66-1-s-0)" stroke="#b85450" stroke-width="2" stroke-miterlimit="10" transform="translate(646,0)scale(-1,1)translate(-646,0)" pointer-events="all"/><path d="M 591 158 L 696 158 L 701 163 L 596 163 Z" fill-opacity="0.05" fill="#000000" stroke="none" transform="translate(646,0)scale(-1,1)translate(-646,0)" pointer-events="all"/><path d="M 591 158 L 596 163 L 596 268 L 591 263 Z" fill-opacity="0.1" fill="#000000" stroke="none" transform="translate(646,0)scale(-1,1)translate(-646,0)" pointer-events="all"/><path d="M 596 268 L 596 163 L 591 158 M 596 163 L 701 163" fill="none" stroke="#b85450" stroke-width="2" stroke-miterlimit="10" transform="translate(646,0)scale(-1,1)translate(-646,0)" pointer-events="all"/><path d="M 576 173 L 681 173 L 686 178 L 686 283 L 581 283 L 576 278 L 576 173 Z" fill="url(#mx-gradient-ffcd28-1-ffa500-1-s-0)" stroke="#d79b00" stroke-width="2" stroke-miterlimit="10" transform="translate(631,0)scale(-1,1)translate(-631,0)" pointer-events="all"/><path d="M 576 173 L 681 173 L 686 178 L 581 178 Z" fill-opacity="0.05" fill="#000000" stroke="none" transform="translate(631,0)scale(-1,1)translate(-631,0)" pointer-events="all"/><path d="M 576 173 L 581 178 L 581 283 L 576 278 Z" fill-opacity="0.1" fill="#000000" stroke="none" transform="translate(631,0)scale(-1,1)translate(-631,0)" pointer-events="all"/><path d="M 581 283 L 581 178 L 576 173 M 581 178 L 686 178" fill="none" stroke="#d79b00" stroke-width="2" stroke-miterlimit="10" transform="translate(631,0)scale(-1,1)translate(-631,0)" pointer-events="all"/><path d="M 1041 73 L 1146 73 L 1151 78 L 1151 183 L 1046 183 L 1041 178 L 1041 73 Z" fill="url(#mx-gradient-f5f5f5-1-b3b3b3-1-s-0)" stroke="#666666" stroke-width="2" stroke-miterlimit="10" transform="translate(1096,0)scale(-1,1)translate(-1096,0)" pointer-events="all"/><path d="M 1041 73 L 1146 73 L 1151 78 L 1046 78 Z" fill-opacity="0.05" fill="#000000" stroke="none" transform="translate(1096,0)scale(-1,1)translate(-1096,0)" pointer-events="all"/><path d="M 1041 73 L 1046 78 L 1046 183 L 1041 178 Z" fill-opacity="0.1" fill="#000000" stroke="none" transform="translate(1096,0)scale(-1,1)translate(-1096,0)" pointer-events="all"/><path d="M 1046 183 L 1046 78 L 1041 73 M 1046 78 L 1151 78" fill="none" stroke="#666666" stroke-width="2" stroke-miterlimit="10" transform="translate(1096,0)scale(-1,1)translate(-1096,0)" pointer-events="all"/><path d="M 1026 88 L 1131 88 L 1136 93 L 1136 198 L 1031 198 L 1026 193 L 1026 88 Z" fill="url(#mx-gradient-e6d0de-1-d5739d-1-s-0)" stroke="#996185" stroke-width="2" stroke-miterlimit="10" transform="translate(1081,0)scale(-1,1)translate(-1081,0)" pointer-events="all"/><path d="M 1026 88 L 1131 88 L 1136 93 L 1031 93 Z" fill-opacity="0.05" fill="#000000" stroke="none" transform="translate(1081,0)scale(-1,1)translate(-1081,0)" pointer-events="all"/><path d="M 1026 88 L 1031 93 L 1031 198 L 1026 193 Z" fill-opacity="0.1" fill="#000000" stroke="none" transform="translate(1081,0)scale(-1,1)translate(-1081,0)" pointer-events="all"/><path d="M 1031 198 L 1031 93 L 1026 88 M 1031 93 L 1136 93" fill="none" stroke="#996185" stroke-width="2" stroke-miterlimit="10" transform="translate(1081,0)scale(-1,1)translate(-1081,0)" pointer-events="all"/><path d="M 1011 103 L 1116 103 L 1121 108 L 1121 213 L 1016 213 L 1011 208 L 1011 103 Z" fill="url(#mx-gradient-dae8fc-1-7ea6e0-1-s-0)" stroke="#6c8ebf" stroke-width="2" stroke-miterlimit="10" transform="translate(1066,0)scale(-1,1)translate(-1066,0)" pointer-events="all"/><path d="M 1011 103 L 1116 103 L 1121 108 L 1016 108 Z" fill-opacity="0.05" fill="#000000" stroke="none" transform="translate(1066,0)scale(-1,1)translate(-1066,0)" pointer-events="all"/><path d="M 1011 103 L 1016 108 L 1016 213 L 1011 208 Z" fill-opacity="0.1" fill="#000000" stroke="none" transform="translate(1066,0)scale(-1,1)translate(-1066,0)" pointer-events="all"/><path d="M 1016 213 L 1016 108 L 1011 103 M 1016 108 L 1121 108" fill="none" stroke="#6c8ebf" stroke-width="2" stroke-miterlimit="10" transform="translate(1066,0)scale(-1,1)translate(-1066,0)" pointer-events="all"/><path d="M 971 143 L 1076 143 L 1081 148 L 1081 253 L 976 253 L 971 248 L 971 143 Z" fill="url(#mx-gradient-d5e8d4-1-97d077-1-s-0)" stroke="#82b366" stroke-width="2" stroke-miterlimit="10" transform="translate(1026,0)scale(-1,1)translate(-1026,0)" pointer-events="all"/><path d="M 971 143 L 1076 143 L 1081 148 L 976 148 Z" fill-opacity="0.05" fill="#000000" stroke="none" transform="translate(1026,0)scale(-1,1)translate(-1026,0)" pointer-events="all"/><path d="M 971 143 L 976 148 L 976 253 L 971 248 Z" fill-opacity="0.1" fill="#000000" stroke="none" transform="translate(1026,0)scale(-1,1)translate(-1026,0)" pointer-events="all"/><path d="M 976 253 L 976 148 L 971 143 M 976 148 L 1081 148" fill="none" stroke="#82b366" stroke-width="2" stroke-miterlimit="10" transform="translate(1026,0)scale(-1,1)translate(-1026,0)" pointer-events="all"/><path d="M 956 158 L 1061 158 L 1066 163 L 1066 268 L 961 268 L 956 263 L 956 158 Z" fill="url(#mx-gradient-f8cecc-1-ea6b66-1-s-0)" stroke="#b85450" stroke-width="2" stroke-miterlimit="10" transform="translate(1011,0)scale(-1,1)translate(-1011,0)" pointer-events="all"/><path d="M 956 158 L 1061 158 L 1066 163 L 961 163 Z" fill-opacity="0.05" fill="#000000" stroke="none" transform="translate(1011,0)scale(-1,1)translate(-1011,0)" pointer-events="all"/><path d="M 956 158 L 961 163 L 961 268 L 956 263 Z" fill-opacity="0.1" fill="#000000" stroke="none" transform="translate(1011,0)scale(-1,1)translate(-1011,0)" pointer-events="all"/><path d="M 961 268 L 961 163 L 956 158 M 961 163 L 1066 163" fill="none" stroke="#b85450" stroke-width="2" stroke-miterlimit="10" transform="translate(1011,0)scale(-1,1)translate(-1011,0)" pointer-events="all"/><path d="M 941 173 L 1056 173 L 1061 178 L 1061 283 L 946 283 L 941 278 L 941 173 Z" fill="url(#mx-gradient-ffcd28-1-ffa500-1-s-0)" stroke="#d79b00" stroke-width="2" stroke-miterlimit="10" transform="translate(1001,0)scale(-1,1)translate(-1001,0)" pointer-events="all"/><path d="M 941 173 L 1056 173 L 1061 178 L 946 178 Z" fill-opacity="0.05" fill="#000000" stroke="none" transform="translate(1001,0)scale(-1,1)translate(-1001,0)" pointer-events="all"/><path d="M 941 173 L 946 178 L 946 283 L 941 278 Z" fill-opacity="0.1" fill="#000000" stroke="none" transform="translate(1001,0)scale(-1,1)translate(-1001,0)" pointer-events="all"/><path d="M 946 283 L 946 178 L 941 173 M 946 178 L 1061 178" fill="none" stroke="#d79b00" stroke-width="2" stroke-miterlimit="10" transform="translate(1001,0)scale(-1,1)translate(-1001,0)" pointer-events="all"/><path d="M 333 228 L 395.9 228" fill="none" stroke="#000000" stroke-width="3" stroke-miterlimit="10" pointer-events="stroke"/><path d="M 402.65 228 L 393.65 232.5 L 395.9 228 L 393.65 223.5 Z" fill="#000000" stroke="#000000" stroke-width="3" stroke-miterlimit="10" pointer-events="all"/><path d="M 493 228 L 555.9 228" fill="none" stroke="#000000" stroke-width="3" stroke-miterlimit="10" pointer-events="stroke"/><path d="M 562.65 228 L 553.65 232.5 L 555.9 228 L 553.65 223.5 Z" fill="#000000" stroke="#000000" stroke-width="3" stroke-miterlimit="10" pointer-events="all"/><path d="M 751 228 L 801.9 227.58" fill="none" stroke="#000000" stroke-width="3" stroke-miterlimit="10" pointer-events="stroke"/><path d="M 808.65 227.53 L 799.68 232.1 L 801.9 227.58 L 799.61 223.1 Z" fill="#000000" stroke="#000000" stroke-width="3" stroke-miterlimit="10" pointer-events="all"/><path d="M 153.5 73 L 153.92 18 Q 154 8 164 8 L 826 8 Q 836 8 836.02 18 L 836.43 197.9" fill="none" stroke="#000000" stroke-width="3" stroke-miterlimit="10" pointer-events="stroke"/><path d="M 836.45 204.65 L 831.93 195.66 L 836.43 197.9 L 840.93 195.64 Z" fill="#000000" stroke="#000000" stroke-width="3" stroke-miterlimit="10" pointer-events="all"/><image x="816.5" y="207.5" width="39" height="39" xlink:href="https://cdn1.iconfinder.com/data/icons/social-media-vol-3/24/_x-128.png" preserveAspectRatio="none"/><path d="M 866 228 L 916.9 227.58" fill="none" stroke="#000000" stroke-width="3" stroke-miterlimit="10" pointer-events="stroke"/><path d="M 923.65 227.53 L 914.68 232.1 L 916.9 227.58 L 914.61 223.1 Z" fill="#000000" stroke="#000000" stroke-width="3" stroke-miterlimit="10" pointer-events="all"/></g></svg>