<?xml version="1.0" encoding="UTF-8"?>
<!DOCTYPE svg PUBLIC "-//W3C//DTD SVG 1.1//EN" "http://www.w3.org/Graphics/SVG/1.1/DTD/svg11.dtd">
<svg xmlns="http://www.w3.org/2000/svg" xmlns:xlink="http://www.w3.org/1999/xlink" version="1.1" width="1162px" height="212px" viewBox="-0.5 -0.5 1162 212"><defs/><g><path d="M 101 1 L 216 1 L 221 6 L 221 111 L 106 111 L 101 106 L 101 1 Z" fill="#ffffff" stroke="#000000" stroke-width="2" stroke-miterlimit="10" transform="translate(161,0)scale(-1,1)translate(-161,0)" pointer-events="all"/><path d="M 101 1 L 216 1 L 221 6 L 106 6 Z" fill-opacity="0.05" fill="#000000" stroke="none" transform="translate(161,0)scale(-1,1)translate(-161,0)" pointer-events="all"/><path d="M 101 1 L 106 6 L 106 111 L 101 106 Z" fill-opacity="0.1" fill="#000000" stroke="none" transform="translate(161,0)scale(-1,1)translate(-161,0)" pointer-events="all"/><path d="M 106 111 L 106 6 L 101 1 M 106 6 L 221 6" fill="none" stroke="#000000" stroke-width="2" stroke-miterlimit="10" transform="translate(161,0)scale(-1,1)translate(-161,0)" pointer-events="all"/><path d="M 86 16 L 201 16 L 206 21 L 206 126 L 91 126 L 86 121 L 86 16 Z" fill="#ffffff" stroke="#000000" stroke-width="2" stroke-miterlimit="10" transform="translate(146,0)scale(-1,1)translate(-146,0)" pointer-events="all"/><path d="M 86 16 L 201 16 L 206 21 L 91 21 Z" fill-opacity="0.05" fill="#000000" stroke="none" transform="translate(146,0)scale(-1,1)translate(-146,0)" pointer-events="all"/><path d="M 86 16 L 91 21 L 91 126 L 86 121 Z" fill-opacity="0.1" fill="#000000" stroke="none" transform="translate(146,0)scale(-1,1)translate(-146,0)" pointer-events="all"/><path d="M 91 126 L 91 21 L 86 16 M 91 21 L 206 21" fill="none" stroke="#000000" stroke-width="2" stroke-miterlimit="10" transform="translate(146,0)scale(-1,1)translate(-146,0)" pointer-events="all"/><path d="M 71 31 L 186 31 L 191 36 L 191 141 L 76 141 L 71 136 L 71 31 Z" fill="#ffffff" stroke="#000000" stroke-width="2" stroke-miterlimit="10" transform="translate(131,0)scale(-1,1)translate(-131,0)" pointer-events="all"/><path d="M 71 31 L 186 31 L 191 36 L 76 36 Z" fill-opacity="0.05" fill="#000000" stroke="none" transform="translate(131,0)scale(-1,1)translate(-131,0)" pointer-events="all"/><path d="M 71 31 L 76 36 L 76 141 L 71 136 Z" fill-opacity="0.1" fill="#000000" stroke="none" transform="translate(131,0)scale(-1,1)translate(-131,0)" pointer-events="all"/><path d="M 76 141 L 76 36 L 71 31 M 76 36 L 191 36" fill="none" stroke="#000000" stroke-width="2" stroke-miterlimit="10" transform="translate(131,0)scale(-1,1)translate(-131,0)" pointer-events="all"/><path d="M 31 71 L 146 71 L 151 76 L 151 181 L 36 181 L 31 176 L 31 71 Z" fill="#ffffff" stroke="#000000" stroke-width="2" stroke-miterlimit="10" transform="translate(91,0)scale(-1,1)translate(-91,0)" pointer-events="all"/><path d="M 31 71 L 146 71 L 151 76 L 36 76 Z" fill-opacity="0.05" fill="#000000" stroke="none" transform="translate(91,0)scale(-1,1)translate(-91,0)" pointer-events="all"/><path d="M 31 71 L 36 76 L 36 181 L 31 176 Z" fill-opacity="0.1" fill="#000000" stroke="none" transform="translate(91,0)scale(-1,1)translate(-91,0)" pointer-events="all"/><path d="M 36 181 L 36 76 L 31 71 M 36 76 L 151 76" fill="none" stroke="#000000" stroke-width="2" stroke-miterlimit="10" transform="translate(91,0)scale(-1,1)translate(-91,0)" pointer-events="all"/><path d="M 16 86 L 131 86 L 136 91 L 136 196 L 21 196 L 16 191 L 16 86 Z" fill="#ffffff" stroke="#000000" stroke-width="2" stroke-miterlimit="10" transform="translate(76,0)scale(-1,1)translate(-76,0)" pointer-events="all"/><path d="M 16 86 L 131 86 L 136 91 L 21 91 Z" fill-opacity="0.05" fill="#000000" stroke="none" transform="translate(76,0)scale(-1,1)translate(-76,0)" pointer-events="all"/><path d="M 16 86 L 21 91 L 21 196 L 16 191 Z" fill-opacity="0.1" fill="#000000" stroke="none" transform="translate(76,0)scale(-1,1)translate(-76,0)" pointer-events="all"/><path d="M 21 196 L 21 91 L 16 86 M 21 91 L 136 91" fill="none" stroke="#000000" stroke-width="2" stroke-miterlimit="10" transform="translate(76,0)scale(-1,1)translate(-76,0)" pointer-events="all"/><path d="M 1 101 L 116 101 L 121 106 L 121 211 L 6 211 L 1 206 L 1 101 Z" fill="#ffffff" stroke="#000000" stroke-width="2" stroke-miterlimit="10" transform="translate(61,0)scale(-1,1)translate(-61,0)" pointer-events="all"/><path d="M 1 101 L 116 101 L 121 106 L 6 106 Z" fill-opacity="0.05" fill="#000000" stroke="none" transform="translate(61,0)scale(-1,1)translate(-61,0)" pointer-events="all"/><path d="M 1 101 L 6 106 L 6 211 L 1 206 Z" fill-opacity="0.1" fill="#000000" stroke="none" transform="translate(61,0)scale(-1,1)translate(-61,0)" pointer-events="all"/><path d="M 6 211 L 6 106 L 1 101 M 6 106 L 121 106" fill="none" stroke="#000000" stroke-width="2" stroke-miterlimit="10" transform="translate(61,0)scale(-1,1)translate(-61,0)" pointer-events="all"/><path d="M 183 156 L 245.9 156" fill="none" stroke="#000000" stroke-width="3" stroke-miterlimit="10" pointer-events="stroke"/><path d="M 252.65 156 L 243.65 160.5 L 245.9 156 L 243.65 151.5 Z" fill="#000000" stroke="#000000" stroke-width="3" stroke-miterlimit="10" pointer-events="all"/><path d="M 366 71 L 401 71 L 406 76 L 406 111 L 371 111 L 366 106 L 366 71 Z" fill="#ffffff" stroke="#000000" stroke-width="2" stroke-miterlimit="10" transform="translate(386,0)scale(-1,1)translate(-386,0)" pointer-events="all"/><path d="M 366 71 L 401 71 L 406 76 L 371 76 Z" fill-opacity="0.05" fill="#000000" stroke="none" transform="translate(386,0)scale(-1,1)translate(-386,0)" pointer-events="all"/><path d="M 366 71 L 371 76 L 371 111 L 366 106 Z" fill-opacity="0.1" fill="#000000" stroke="none" transform="translate(386,0)scale(-1,1)translate(-386,0)" pointer-events="all"/><path d="M 371 111 L 371 76 L 366 71 M 371 76 L 406 76" fill="none" stroke="#000000" stroke-width="2" stroke-miterlimit="10" transform="translate(386,0)scale(-1,1)translate(-386,0)" pointer-events="all"/><path d="M 351 86 L 386 86 L 391 91 L 391 126 L 356 126 L 351 121 L 351 86 Z" fill="#ffffff" stroke="#000000" stroke-width="2" stroke-miterlimit="10" transform="translate(371,0)scale(-1,1)translate(-371,0)" pointer-events="all"/><path d="M 351 86 L 386 86 L 391 91 L 356 91 Z" fill-opacity="0.05" fill="#000000" stroke="none" transform="translate(371,0)scale(-1,1)translate(-371,0)" pointer-events="all"/><path d="M 351 86 L 356 91 L 356 126 L 351 121 Z" fill-opacity="0.1" fill="#000000" stroke="none" transform="translate(371,0)scale(-1,1)translate(-371,0)" pointer-events="all"/><path d="M 356 126 L 356 91 L 351 86 M 356 91 L 391 91" fill="none" stroke="#000000" stroke-width="2" stroke-miterlimit="10" transform="translate(371,0)scale(-1,1)translate(-371,0)" pointer-events="all"/><path d="M 336 101 L 371 101 L 376 106 L 376 141 L 341 141 L 336 136 L 336 101 Z" fill="#ffffff" stroke="#000000" stroke-width="2" stroke-miterlimit="10" transform="translate(356,0)scale(-1,1)translate(-356,0)" pointer-events="all"/><path d="M 336 101 L 371 101 L 376 106 L 341 106 Z" fill-opacity="0.05" fill="#000000" stroke="none" transform="translate(356,0)scale(-1,1)translate(-356,0)" pointer-events="all"/><path d="M 336 101 L 341 106 L 341 141 L 336 136 Z" fill-opacity="0.1" fill="#000000" stroke="none" transform="translate(356,0)scale(-1,1)translate(-356,0)" pointer-events="all"/><path d="M 341 141 L 341 106 L 336 101 M 341 106 L 376 106" fill="none" stroke="#000000" stroke-width="2" stroke-miterlimit="10" transform="translate(356,0)scale(-1,1)translate(-356,0)" pointer-events="all"/><path d="M 296 141 L 331 141 L 336 146 L 336 181 L 301 181 L 296 176 L 296 141 Z" fill="#ffffff" stroke="#000000" stroke-width="2" stroke-miterlimit="10" transform="translate(316,0)scale(-1,1)translate(-316,0)" pointer-events="all"/><path d="M 296 141 L 331 141 L 336 146 L 301 146 Z" fill-opacity="0.05" fill="#000000" stroke="none" transform="translate(316,0)scale(-1,1)translate(-316,0)" pointer-events="all"/><path d="M 296 141 L 301 146 L 301 181 L 296 176 Z" fill-opacity="0.1" fill="#000000" stroke="none" transform="translate(316,0)scale(-1,1)translate(-316,0)" pointer-events="all"/><path d="M 301 181 L 301 146 L 296 141 M 301 146 L 336 146" fill="none" stroke="#000000" stroke-width="2" stroke-miterlimit="10" transform="translate(316,0)scale(-1,1)translate(-316,0)" pointer-events="all"/><path d="M 281 156 L 316 156 L 321 161 L 321 196 L 286 196 L 281 191 L 281 156 Z" fill="#ffffff" stroke="#000000" stroke-width="2" stroke-miterlimit="10" transform="translate(301,0)scale(-1,1)translate(-301,0)" pointer-events="all"/><path d="M 281 156 L 316 156 L 321 161 L 286 161 Z" fill-opacity="0.05" fill="#000000" stroke="none" transform="translate(301,0)scale(-1,1)translate(-301,0)" pointer-events="all"/><path d="M 281 156 L 286 161 L 286 196 L 281 191 Z" fill-opacity="0.1" fill="#000000" stroke="none" transform="translate(301,0)scale(-1,1)translate(-301,0)" pointer-events="all"/><path d="M 286 196 L 286 161 L 281 156 M 286 161 L 321 161" fill="none" stroke="#000000" stroke-width="2" stroke-miterlimit="10" transform="translate(301,0)scale(-1,1)translate(-301,0)" pointer-events="all"/><path d="M 266 171 L 301 171 L 306 176 L 306 211 L 271 211 L 266 206 L 266 171 Z" fill="#ffffff" stroke="#000000" stroke-width="2" stroke-miterlimit="10" transform="translate(286,0)scale(-1,1)translate(-286,0)" pointer-events="all"/><path d="M 266 171 L 301 171 L 306 176 L 271 176 Z" fill-opacity="0.05" fill="#000000" stroke="none" transform="translate(286,0)scale(-1,1)translate(-286,0)" pointer-events="all"/><path d="M 266 171 L 271 176 L 271 211 L 266 206 Z" fill-opacity="0.1" fill="#000000" stroke="none" transform="translate(286,0)scale(-1,1)translate(-286,0)" pointer-events="all"/><path d="M 271 211 L 271 176 L 266 171 M 271 176 L 306 176" fill="none" stroke="#000000" stroke-width="2" stroke-miterlimit="10" transform="translate(286,0)scale(-1,1)translate(-286,0)" pointer-events="all"/><path d="M 521 71 L 556 71 L 561 76 L 561 111 L 526 111 L 521 106 L 521 71 Z" fill="#ffffff" stroke="#000000" stroke-width="2" stroke-miterlimit="10" transform="translate(541,0)scale(-1,1)translate(-541,0)" pointer-events="all"/><path d="M 521 71 L 556 71 L 561 76 L 526 76 Z" fill-opacity="0.05" fill="#000000" stroke="none" transform="translate(541,0)scale(-1,1)translate(-541,0)" pointer-events="all"/><path d="M 521 71 L 526 76 L 526 111 L 521 106 Z" fill-opacity="0.1" fill="#000000" stroke="none" transform="translate(541,0)scale(-1,1)translate(-541,0)" pointer-events="all"/><path d="M 526 111 L 526 76 L 521 71 M 526 76 L 561 76" fill="none" stroke="#000000" stroke-width="2" stroke-miterlimit="10" transform="translate(541,0)scale(-1,1)translate(-541,0)" pointer-events="all"/><path d="M 506 86 L 541 86 L 546 91 L 546 126 L 511 126 L 506 121 L 506 86 Z" fill="#ffffff" stroke="#000000" stroke-width="2" stroke-miterlimit="10" transform="translate(526,0)scale(-1,1)translate(-526,0)" pointer-events="all"/><path d="M 506 86 L 541 86 L 546 91 L 511 91 Z" fill-opacity="0.05" fill="#000000" stroke="none" transform="translate(526,0)scale(-1,1)translate(-526,0)" pointer-events="all"/><path d="M 506 86 L 511 91 L 511 126 L 506 121 Z" fill-opacity="0.1" fill="#000000" stroke="none" transform="translate(526,0)scale(-1,1)translate(-526,0)" pointer-events="all"/><path d="M 511 126 L 511 91 L 506 86 M 511 91 L 546 91" fill="none" stroke="#000000" stroke-width="2" stroke-miterlimit="10" transform="translate(526,0)scale(-1,1)translate(-526,0)" pointer-events="all"/><path d="M 491 101 L 526 101 L 531 106 L 531 141 L 496 141 L 491 136 L 491 101 Z" fill="#ffffff" stroke="#000000" stroke-width="2" stroke-miterlimit="10" transform="translate(511,0)scale(-1,1)translate(-511,0)" pointer-events="all"/><path d="M 491 101 L 526 101 L 531 106 L 496 106 Z" fill-opacity="0.05" fill="#000000" stroke="none" transform="translate(511,0)scale(-1,1)translate(-511,0)" pointer-events="all"/><path d="M 491 101 L 496 106 L 496 141 L 491 136 Z" fill-opacity="0.1" fill="#000000" stroke="none" transform="translate(511,0)scale(-1,1)translate(-511,0)" pointer-events="all"/><path d="M 496 141 L 496 106 L 491 101 M 496 106 L 531 106" fill="none" stroke="#000000" stroke-width="2" stroke-miterlimit="10" transform="translate(511,0)scale(-1,1)translate(-511,0)" pointer-events="all"/><path d="M 451 141 L 486 141 L 491 146 L 491 181 L 456 181 L 451 176 L 451 141 Z" fill="#ffffff" stroke="#000000" stroke-width="2" stroke-miterlimit="10" transform="translate(471,0)scale(-1,1)translate(-471,0)" pointer-events="all"/><path d="M 451 141 L 486 141 L 491 146 L 456 146 Z" fill-opacity="0.05" fill="#000000" stroke="none" transform="translate(471,0)scale(-1,1)translate(-471,0)" pointer-events="all"/><path d="M 451 141 L 456 146 L 456 181 L 451 176 Z" fill-opacity="0.1" fill="#000000" stroke="none" transform="translate(471,0)scale(-1,1)translate(-471,0)" pointer-events="all"/><path d="M 456 181 L 456 146 L 451 141 M 456 146 L 491 146" fill="none" stroke="#000000" stroke-width="2" stroke-miterlimit="10" transform="translate(471,0)scale(-1,1)translate(-471,0)" pointer-events="all"/><path d="M 436 156 L 471 156 L 476 161 L 476 196 L 441 196 L 436 191 L 436 156 Z" fill="#ffffff" stroke="#000000" stroke-width="2" stroke-miterlimit="10" transform="translate(456,0)scale(-1,1)translate(-456,0)" pointer-events="all"/><path d="M 436 156 L 471 156 L 476 161 L 441 161 Z" fill-opacity="0.05" fill="#000000" stroke="none" transform="translate(456,0)scale(-1,1)translate(-456,0)" pointer-events="all"/><path d="M 436 156 L 441 161 L 441 196 L 436 191 Z" fill-opacity="0.1" fill="#000000" stroke="none" transform="translate(456,0)scale(-1,1)translate(-456,0)" pointer-events="all"/><path d="M 441 196 L 441 161 L 436 156 M 441 161 L 476 161" fill="none" stroke="#000000" stroke-width="2" stroke-miterlimit="10" transform="translate(456,0)scale(-1,1)translate(-456,0)" pointer-events="all"/><path d="M 421 171 L 456 171 L 461 176 L 461 211 L 426 211 L 421 206 L 421 171 Z" fill="#ffffff" stroke="#000000" stroke-width="2" stroke-miterlimit="10" transform="translate(441,0)scale(-1,1)translate(-441,0)" pointer-events="all"/><path d="M 421 171 L 456 171 L 461 176 L 426 176 Z" fill-opacity="0.05" fill="#000000" stroke="none" transform="translate(441,0)scale(-1,1)translate(-441,0)" pointer-events="all"/><path d="M 421 171 L 426 176 L 426 211 L 421 206 Z" fill-opacity="0.1" fill="#000000" stroke="none" transform="translate(441,0)scale(-1,1)translate(-441,0)" pointer-events="all"/><path d="M 426 211 L 426 176 L 421 171 M 426 176 L 461 176" fill="none" stroke="#000000" stroke-width="2" stroke-miterlimit="10" transform="translate(441,0)scale(-1,1)translate(-441,0)" pointer-events="all"/><path d="M 716 1 L 831 1 L 836 6 L 836 111 L 721 111 L 716 106 L 716 1 Z" fill="#ffffff" stroke="#000000" stroke-width="2" stroke-miterlimit="10" transform="translate(776,0)scale(-1,1)translate(-776,0)" pointer-events="all"/><path d="M 716 1 L 831 1 L 836 6 L 721 6 Z" fill-opacity="0.05" fill="#000000" stroke="none" transform="translate(776,0)scale(-1,1)translate(-776,0)" pointer-events="all"/><path d="M 716 1 L 721 6 L 721 111 L 716 106 Z" fill-opacity="0.1" fill="#000000" stroke="none" transform="translate(776,0)scale(-1,1)translate(-776,0)" pointer-events="all"/><path d="M 721 111 L 721 6 L 716 1 M 721 6 L 836 6" fill="none" stroke="#000000" stroke-width="2" stroke-miterlimit="10" transform="translate(776,0)scale(-1,1)translate(-776,0)" pointer-events="all"/><path d="M 701 16 L 816 16 L 821 21 L 821 126 L 706 126 L 701 121 L 701 16 Z" fill="#ffffff" stroke="#000000" stroke-width="2" stroke-miterlimit="10" transform="translate(761,0)scale(-1,1)translate(-761,0)" pointer-events="all"/><path d="M 701 16 L 816 16 L 821 21 L 706 21 Z" fill-opacity="0.05" fill="#000000" stroke="none" transform="translate(761,0)scale(-1,1)translate(-761,0)" pointer-events="all"/><path d="M 701 16 L 706 21 L 706 126 L 701 121 Z" fill-opacity="0.1" fill="#000000" stroke="none" transform="translate(761,0)scale(-1,1)translate(-761,0)" pointer-events="all"/><path d="M 706 126 L 706 21 L 701 16 M 706 21 L 821 21" fill="none" stroke="#000000" stroke-width="2" stroke-miterlimit="10" transform="translate(761,0)scale(-1,1)translate(-761,0)" pointer-events="all"/><path d="M 686 31 L 801 31 L 806 36 L 806 141 L 691 141 L 686 136 L 686 31 Z" fill="#ffffff" stroke="#000000" stroke-width="2" stroke-miterlimit="10" transform="translate(746,0)scale(-1,1)translate(-746,0)" pointer-events="all"/><path d="M 686 31 L 801 31 L 806 36 L 691 36 Z" fill-opacity="0.05" fill="#000000" stroke="none" transform="translate(746,0)scale(-1,1)translate(-746,0)" pointer-events="all"/><path d="M 686 31 L 691 36 L 691 141 L 686 136 Z" fill-opacity="0.1" fill="#000000" stroke="none" transform="translate(746,0)scale(-1,1)translate(-746,0)" pointer-events="all"/><path d="M 691 141 L 691 36 L 686 31 M 691 36 L 806 36" fill="none" stroke="#000000" stroke-width="2" stroke-miterlimit="10" transform="translate(746,0)scale(-1,1)translate(-746,0)" pointer-events="all"/><path d="M 646 71 L 761 71 L 766 76 L 766 181 L 651 181 L 646 176 L 646 71 Z" fill="#ffffff" stroke="#000000" stroke-width="2" stroke-miterlimit="10" transform="translate(706,0)scale(-1,1)translate(-706,0)" pointer-events="all"/><path d="M 646 71 L 761 71 L 766 76 L 651 76 Z" fill-opacity="0.05" fill="#000000" stroke="none" transform="translate(706,0)scale(-1,1)translate(-706,0)" pointer-events="all"/><path d="M 646 71 L 651 76 L 651 181 L 646 176 Z" fill-opacity="0.1" fill="#000000" stroke="none" transform="translate(706,0)scale(-1,1)translate(-706,0)" pointer-events="all"/><path d="M 651 181 L 651 76 L 646 71 M 651 76 L 766 76" fill="none" stroke="#000000" stroke-width="2" stroke-miterlimit="10" transform="translate(706,0)scale(-1,1)translate(-706,0)" pointer-events="all"/><path d="M 631 86 L 746 86 L 751 91 L 751 196 L 636 196 L 631 191 L 631 86 Z" fill="#ffffff" stroke="#000000" stroke-width="2" stroke-miterlimit="10" transform="translate(691,0)scale(-1,1)translate(-691,0)" pointer-events="all"/><path d="M 631 86 L 746 86 L 751 91 L 636 91 Z" fill-opacity="0.05" fill="#000000" stroke="none" transform="translate(691,0)scale(-1,1)translate(-691,0)" pointer-events="all"/><path d="M 631 86 L 636 91 L 636 196 L 631 191 Z" fill-opacity="0.1" fill="#000000" stroke="none" transform="translate(691,0)scale(-1,1)translate(-691,0)" pointer-events="all"/><path d="M 636 196 L 636 91 L 631 86 M 636 91 L 751 91" fill="none" stroke="#000000" stroke-width="2" stroke-miterlimit="10" transform="translate(691,0)scale(-1,1)translate(-691,0)" pointer-events="all"/><path d="M 616 101 L 731 101 L 736 106 L 736 211 L 621 211 L 616 206 L 616 101 Z" fill="#ffffff" stroke="#000000" stroke-width="2" stroke-miterlimit="10" transform="translate(676,0)scale(-1,1)translate(-676,0)" pointer-events="all"/><path d="M 616 101 L 731 101 L 736 106 L 621 106 Z" fill-opacity="0.05" fill="#000000" stroke="none" transform="translate(676,0)scale(-1,1)translate(-676,0)" pointer-events="all"/><path d="M 616 101 L 621 106 L 621 211 L 616 206 Z" fill-opacity="0.1" fill="#000000" stroke="none" transform="translate(676,0)scale(-1,1)translate(-676,0)" pointer-events="all"/><path d="M 621 211 L 621 106 L 616 101 M 621 106 L 736 106" fill="none" stroke="#000000" stroke-width="2" stroke-miterlimit="10" transform="translate(676,0)scale(-1,1)translate(-676,0)" pointer-events="all"/><path d="M 1041 1 L 1156 1 L 1161 6 L 1161 111 L 1046 111 L 1041 106 L 1041 1 Z" fill="#ffffff" stroke="#000000" stroke-width="2" stroke-miterlimit="10" transform="translate(1101,0)scale(-1,1)translate(-1101,0)" pointer-events="all"/><path d="M 1041 1 L 1156 1 L 1161 6 L 1046 6 Z" fill-opacity="0.05" fill="#000000" stroke="none" transform="translate(1101,0)scale(-1,1)translate(-1101,0)" pointer-events="all"/><path d="M 1041 1 L 1046 6 L 1046 111 L 1041 106 Z" fill-opacity="0.1" fill="#000000" stroke="none" transform="translate(1101,0)scale(-1,1)translate(-1101,0)" pointer-events="all"/><path d="M 1046 111 L 1046 6 L 1041 1 M 1046 6 L 1161 6" fill="none" stroke="#000000" stroke-width="2" stroke-miterlimit="10" transform="translate(1101,0)scale(-1,1)translate(-1101,0)" pointer-events="all"/><path d="M 1026 16 L 1141 16 L 1146 21 L 1146 126 L 1031 126 L 1026 121 L 1026 16 Z" fill="#ffffff" stroke="#000000" stroke-width="2" stroke-miterlimit="10" transform="translate(1086,0)scale(-1,1)translate(-1086,0)" pointer-events="all"/><path d="M 1026 16 L 1141 16 L 1146 21 L 1031 21 Z" fill-opacity="0.05" fill="#000000" stroke="none" transform="translate(1086,0)scale(-1,1)translate(-1086,0)" pointer-events="all"/><path d="M 1026 16 L 1031 21 L 1031 126 L 1026 121 Z" fill-opacity="0.1" fill="#000000" stroke="none" transform="translate(1086,0)scale(-1,1)translate(-1086,0)" pointer-events="all"/><path d="M 1031 126 L 1031 21 L 1026 16 M 1031 21 L 1146 21" fill="none" stroke="#000000" stroke-width="2" stroke-miterlimit="10" transform="translate(1086,0)scale(-1,1)translate(-1086,0)" pointer-events="all"/><path d="M 1011 31 L 1126 31 L 1131 36 L 1131 141 L 1016 141 L 1011 136 L 1011 31 Z" fill="#ffffff" stroke="#000000" stroke-width="2" stroke-miterlimit="10" transform="translate(1071,0)scale(-1,1)translate(-1071,0)" pointer-events="all"/><path d="M 1011 31 L 1126 31 L 1131 36 L 1016 36 Z" fill-opacity="0.05" fill="#000000" stroke="none" transform="translate(1071,0)scale(-1,1)translate(-1071,0)" pointer-events="all"/><path d="M 1011 31 L 1016 36 L 1016 141 L 1011 136 Z" fill-opacity="0.1" fill="#000000" stroke="none" transform="translate(1071,0)scale(-1,1)translate(-1071,0)" pointer-events="all"/><path d="M 1016 141 L 1016 36 L 1011 31 M 1016 36 L 1131 36" fill="none" stroke="#000000" stroke-width="2" stroke-miterlimit="10" transform="translate(1071,0)scale(-1,1)translate(-1071,0)" pointer-events="all"/><path d="M 971 71 L 1086 71 L 1091 76 L 1091 181 L 976 181 L 971 176 L 971 71 Z" fill="#ffffff" stroke="#000000" stroke-width="2" stroke-miterlimit="10" transform="translate(1031,0)scale(-1,1)translate(-1031,0)" pointer-events="all"/><path d="M 971 71 L 1086 71 L 1091 76 L 976 76 Z" fill-opacity="0.05" fill="#000000" stroke="none" transform="translate(1031,0)scale(-1,1)translate(-1031,0)" pointer-events="all"/><path d="M 971 71 L 976 76 L 976 181 L 971 176 Z" fill-opacity="0.1" fill="#000000" stroke="none" transform="translate(1031,0)scale(-1,1)translate(-1031,0)" pointer-events="all"/><path d="M 976 181 L 976 76 L 971 71 M 976 76 L 1091 76" fill="none" stroke="#000000" stroke-width="2" stroke-miterlimit="10" transform="translate(1031,0)scale(-1,1)translate(-1031,0)" pointer-events="all"/><path d="M 956 86 L 1071 86 L 1076 91 L 1076 196 L 961 196 L 956 191 L 956 86 Z" fill="#ffffff" stroke="#000000" stroke-width="2" stroke-miterlimit="10" transform="translate(1016,0)scale(-1,1)translate(-1016,0)" pointer-events="all"/><path d="M 956 86 L 1071 86 L 1076 91 L 961 91 Z" fill-opacity="0.05" fill="#000000" stroke="none" transform="translate(1016,0)scale(-1,1)translate(-1016,0)" pointer-events="all"/><path d="M 956 86 L 961 91 L 961 196 L 956 191 Z" fill-opacity="0.1" fill="#000000" stroke="none" transform="translate(1016,0)scale(-1,1)translate(-1016,0)" pointer-events="all"/><path d="M 961 196 L 961 91 L 956 86 M 961 91 L 1076 91" fill="none" stroke="#000000" stroke-width="2" stroke-miterlimit="10" transform="translate(1016,0)scale(-1,1)translate(-1016,0)" pointer-events="all"/><path d="M 941 101 L 1056 101 L 1061 106 L 1061 211 L 946 211 L 941 206 L 941 101 Z" fill="#ffffff" stroke="#000000" stroke-width="2" stroke-miterlimit="10" transform="translate(1001,0)scale(-1,1)translate(-1001,0)" pointer-events="all"/><path d="M 941 101 L 1056 101 L 1061 106 L 946 106 Z" fill-opacity="0.05" fill="#000000" stroke="none" transform="translate(1001,0)scale(-1,1)translate(-1001,0)" pointer-events="all"/><path d="M 941 101 L 946 106 L 946 211 L 941 206 Z" fill-opacity="0.1" fill="#000000" stroke="none" transform="translate(1001,0)scale(-1,1)translate(-1001,0)" pointer-events="all"/><path d="M 946 211 L 946 106 L 941 101 M 946 106 L 1061 106" fill="none" stroke="#000000" stroke-width="2" stroke-miterlimit="10" transform="translate(1001,0)scale(-1,1)translate(-1001,0)" pointer-events="all"/></g></svg>